<?xml version="1.0" standalone="no"?>
<!DOCTYPE svg PUBLIC "-//W3C//DTD SVG 20010904//EN"
 "http://www.w3.org/TR/2001/REC-SVG-20010904/DTD/svg10.dtd">
<svg version="1.0" xmlns="http://www.w3.org/2000/svg"
 width="402.000000pt" height="402.000000pt" viewBox="0 0 402.000000 402.000000"
 preserveAspectRatio="xMidYMid meet">
<metadata>
Created by potrace 1.11, written by Peter Selinger 2001-2013
</metadata>
<g transform="translate(0.000000,402.000000) scale(0.100000,-0.100000)"
fill="#000000" stroke="none">
<path d="M1040 3963 c-163 -24 -280 -60 -407 -124 -334 -170 -563 -484 -622
-854 -12 -72 -8 -1931 3 -1990 100 -504 500 -879 1006 -945 44 -5 461 -9 1005
-9 1022 0 1021 0 1208 63 360 121 640 412 743 771 43 149 43 132 43 1648 l1
1447 -1477 -1 c-813 -1 -1489 -4 -1503 -6z"/>
</g>
</svg>
